<svg xmlns="http://www.w3.org/2000/svg" viewBox="0 0 161 46" width="161" height="46" role="img" aria-label="mcpickle" shape-rendering="crispEdges">
  <g transform="translate(8.00 8.00) scale(2.0000)">
    <clipPath id="appleClip">
    <rect x="7" y="0" width="2" height="2"/>
    <rect x="5" y="1" width="2" height="2"/>
    <path d="M2 4h4v1h2V4h4v8h-1v2H3v-2H2V4z"/>
    <rect x="0" y="6" width="2" height="4"/>
    <rect x="11" y="6" width="2" height="4"/></clipPath>
    <g clip-path="url(#appleClip)"><rect x="0" y="0.000" width="13" height="2.500" fill="#61bb46"/><rect x="0" y="2.500" width="13" height="2.500" fill="#fdb827"/><rect x="0" y="5.000" width="13" height="2.500" fill="#f5821f"/><rect x="0" y="7.500" width="13" height="2.500" fill="#e03a3e"/><rect x="0" y="10.000" width="13" height="2.500" fill="#963d97"/><rect x="0" y="12.500" width="13" height="2.500" fill="#009ddc"/></g>
  </g>
  <g fill="#1a1a1a"><rect x="48" y="15.5" width="3" height="3"/><rect x="51" y="15.5" width="3" height="3"/><rect x="54" y="15.5" width="3" height="3"/><rect x="57" y="15.5" width="3" height="3"/><rect x="60" y="15.5" width="3" height="3"/><rect x="48" y="18.5" width="3" height="3"/><rect x="54" y="18.5" width="3" height="3"/><rect x="60" y="18.5" width="3" height="3"/><rect x="48" y="21.5" width="3" height="3"/><rect x="54" y="21.5" width="3" height="3"/><rect x="60" y="21.5" width="3" height="3"/><rect x="48" y="24.5" width="3" height="3"/><rect x="54" y="24.5" width="3" height="3"/><rect x="60" y="24.5" width="3" height="3"/><rect x="48" y="27.5" width="3" height="3"/><rect x="54" y="27.5" width="3" height="3"/><rect x="60" y="27.5" width="3" height="3"/><rect x="69" y="15.5" width="3" height="3"/><rect x="72" y="15.5" width="3" height="3"/><rect x="75" y="15.5" width="3" height="3"/><rect x="66" y="18.5" width="3" height="3"/><rect x="66" y="21.5" width="3" height="3"/><rect x="66" y="24.5" width="3" height="3"/><rect x="69" y="27.5" width="3" height="3"/><rect x="72" y="27.5" width="3" height="3"/><rect x="75" y="27.5" width="3" height="3"/><rect x="81" y="15.5" width="3" height="3"/><rect x="84" y="15.5" width="3" height="3"/><rect x="87" y="15.5" width="3" height="3"/><rect x="81" y="18.5" width="3" height="3"/><rect x="90" y="18.5" width="3" height="3"/><rect x="81" y="21.5" width="3" height="3"/><rect x="90" y="21.5" width="3" height="3"/><rect x="81" y="24.5" width="3" height="3"/><rect x="84" y="24.5" width="3" height="3"/><rect x="87" y="24.5" width="3" height="3"/><rect x="81" y="27.5" width="3" height="3"/><rect x="81" y="30.5" width="3" height="3"/><rect x="81" y="33.5" width="3" height="3"/><rect x="96" y="9.5" width="3" height="3"/><rect x="96" y="15.5" width="3" height="3"/><rect x="96" y="18.5" width="3" height="3"/><rect x="96" y="21.5" width="3" height="3"/><rect x="96" y="24.5" width="3" height="3"/><rect x="96" y="27.5" width="3" height="3"/><rect x="105" y="15.5" width="3" height="3"/><rect x="108" y="15.5" width="3" height="3"/><rect x="111" y="15.5" width="3" height="3"/><rect x="102" y="18.5" width="3" height="3"/><rect x="102" y="21.5" width="3" height="3"/><rect x="102" y="24.5" width="3" height="3"/><rect x="105" y="27.5" width="3" height="3"/><rect x="108" y="27.5" width="3" height="3"/><rect x="111" y="27.5" width="3" height="3"/><rect x="117" y="9.5" width="3" height="3"/><rect x="117" y="12.5" width="3" height="3"/><rect x="117" y="15.5" width="3" height="3"/><rect x="126" y="15.5" width="3" height="3"/><rect x="117" y="18.5" width="3" height="3"/><rect x="123" y="18.5" width="3" height="3"/><rect x="117" y="21.5" width="3" height="3"/><rect x="120" y="21.5" width="3" height="3"/><rect x="117" y="24.5" width="3" height="3"/><rect x="123" y="24.5" width="3" height="3"/><rect x="117" y="27.5" width="3" height="3"/><rect x="126" y="27.5" width="3" height="3"/><rect x="132" y="9.5" width="3" height="3"/><rect x="132" y="12.5" width="3" height="3"/><rect x="132" y="15.5" width="3" height="3"/><rect x="132" y="18.5" width="3" height="3"/><rect x="132" y="21.5" width="3" height="3"/><rect x="132" y="24.5" width="3" height="3"/><rect x="132" y="27.5" width="3" height="3"/><rect x="135" y="27.5" width="3" height="3"/><rect x="144" y="15.5" width="3" height="3"/><rect x="147" y="15.5" width="3" height="3"/><rect x="141" y="18.5" width="3" height="3"/><rect x="150" y="18.5" width="3" height="3"/><rect x="141" y="21.5" width="3" height="3"/><rect x="144" y="21.5" width="3" height="3"/><rect x="147" y="21.5" width="3" height="3"/><rect x="150" y="21.5" width="3" height="3"/><rect x="141" y="24.5" width="3" height="3"/><rect x="144" y="27.5" width="3" height="3"/><rect x="147" y="27.5" width="3" height="3"/><rect x="150" y="27.5" width="3" height="3"/></g>
</svg>