<svg width="630" height="94" viewBox="0 0 630 94" fill="none" xmlns="http://www.w3.org/2000/svg">
<path d="M5.25 93.6094C4.25 93.6094 3.34375 93.5312 2.53125 93.375C1.71875 93.25 0.875 93.0469 0 92.7656L0.609375 85.7344C1.04688 85.8906 1.78125 86.0312 2.8125 86.1562C3.875 86.2812 4.6875 86.3438 5.25 86.3438C7.09375 86.3438 8.54688 85.5312 9.60938 83.9062C10.7031 82.3125 11.25 80.1094 11.25 77.2969V29.6719L3.60938 28.3594V22.4062H20.4844V77.2969C20.4844 82.5156 19.1406 86.5312 16.4531 89.3438C13.7656 92.1875 10.0312 93.6094 5.25 93.6094ZM10.7812 9.89062V0H20.4844V9.89062H10.7812Z" class="name-svg-fill" />
<path d="M47.1562 74.1094C41.875 74.1094 37.8594 72.8281 35.1094 70.2656C32.3594 67.6719 30.9844 64.0312 30.9844 59.3438C30.9844 54.5312 32.9531 50.6719 36.8906 47.7656C40.8281 44.8281 46.2969 43.3594 53.2969 43.3594H62.3438V38.3906C62.3438 35.3281 61.4062 32.9531 59.5312 31.2656C57.6875 29.5781 55.0781 28.7344 51.7031 28.7344C49.5781 28.7344 47.7344 29 46.1719 29.5312C44.6094 30.0312 43.1875 30.7344 41.9062 31.6406L40.9219 38.7188H33.7969V27.0938C38.3906 23.3438 44.4062 21.4688 51.8438 21.4688C58 21.4688 62.8281 22.9375 66.3281 25.875C69.8281 28.8125 71.5781 33.0156 71.5781 38.4844V62.9062C71.5781 63.5625 71.5781 64.2031 71.5781 64.8281C71.6094 65.4531 71.6562 66.0781 71.7188 66.7031L76.6406 67.2188V73.125H63.375C62.8438 70.5625 62.5156 68.2344 62.3906 66.1406C60.6094 68.4219 58.375 70.3281 55.6875 71.8594C53.0312 73.3594 50.1875 74.1094 47.1562 74.1094ZM48.5156 66.375C51.5781 66.375 54.375 65.6406 56.9062 64.1719C59.4375 62.7031 61.25 60.9375 62.3438 58.875V49.6875H52.9688C48.7188 49.6875 45.5312 50.7031 43.4062 52.7344C41.2812 54.7656 40.2188 57.0312 40.2188 59.5312C40.2188 64.0938 42.9844 66.375 48.5156 66.375Z" class="name-svg-fill" />
<path d="M106.734 74.1094C102.141 74.1094 98.1406 73.0469 94.7344 70.9219C91.3281 68.7656 88.6875 65.7812 86.8125 61.9688C84.9375 58.1562 84 53.75 84 48.75V46.7812C84 41.9688 84.9062 37.6562 86.7188 33.8438C88.5312 30.0312 91.1406 27.0156 94.5469 24.7969C97.9531 22.5781 102.016 21.4688 106.734 21.4688C110.828 21.4688 114.406 22.1406 117.469 23.4844C120.562 24.8281 123.156 26.6719 125.25 29.0156L125.484 41.2031H118.266L116.672 32.3438C115.609 31.25 114.281 30.375 112.688 29.7188C111.094 29.0625 109.219 28.7344 107.062 28.7344C104.312 28.7344 101.891 29.5469 99.7969 31.1719C97.7344 32.7969 96.125 34.9688 94.9688 37.6875C93.8125 40.4062 93.2344 43.4375 93.2344 46.7812V48.75C93.2344 54.3125 94.4375 58.7344 96.8438 62.0156C99.25 65.2656 102.531 66.8906 106.688 66.8906C109.812 66.8906 112.406 66.0312 114.469 64.3125C116.531 62.5938 117.797 60.2344 118.266 57.2344H126.562L126.656 57.5156C126.5 60.4219 125.641 63.1406 124.078 65.6719C122.516 68.2031 120.281 70.25 117.375 71.8125C114.5 73.3438 110.953 74.1094 106.734 74.1094Z" class="name-svg-fill" />
<path d="M133.406 73.125V67.2188L141.047 65.9062V7.26562L133.406 5.95312V0H150.281V47.1094L168.234 29.25L168.469 28.9688L163.031 28.3594V22.4062H184.875V28.3594L178.359 29.5781L164.109 43.9219L181.594 66.0938L188.906 67.2188V73.125H165.984V67.2188L171.141 66.6094L171 66.4219L158.156 49.875L150.281 57.7969V65.9062L157.922 67.2188V73.125H133.406Z" class="name-svg-fill" />
<path d="M197.578 73.125V63.6562H206.812V73.125H197.578Z" class="name-svg-fill" />
<path d="M217.406 73.125V67.2188L225.047 65.9062V29.6719L217.406 28.3594V22.4062H233.344L233.953 29.0156C235.578 26.6094 237.672 24.75 240.234 23.4375C242.797 22.125 245.766 21.4688 249.141 21.4688C252.516 21.4688 255.406 22.25 257.812 23.8125C260.25 25.375 262.078 27.7188 263.297 30.8438C264.891 27.9688 267 25.6875 269.625 24C272.25 22.3125 275.312 21.4688 278.812 21.4688C284 21.4688 288.094 23.25 291.094 26.8125C294.094 30.3438 295.594 35.6719 295.594 42.7969V65.9062L303.234 67.2188V73.125H278.672V67.2188L286.312 65.9062V42.7031C286.312 37.7031 285.453 34.1719 283.734 32.1094C282.016 30.0156 279.469 28.9688 276.094 28.9688C272.875 28.9688 270.281 30.1094 268.312 32.3906C266.375 34.6406 265.25 37.4844 264.938 40.9219V65.9062L272.578 67.2188V73.125H248.062V67.2188L255.703 65.9062V42.7031C255.703 37.9531 254.812 34.4844 253.031 32.2969C251.281 30.0781 248.734 28.9688 245.391 28.9688C242.578 28.9688 240.266 29.5469 238.453 30.7031C236.641 31.8594 235.25 33.4844 234.281 35.5781V65.9062L241.922 67.2188V73.125H217.406Z" class="name-svg-fill" />
<path d="M332.578 74.1094C327.984 74.1094 323.984 73.0469 320.578 70.9219C317.172 68.7656 314.531 65.7812 312.656 61.9688C310.781 58.1562 309.844 53.75 309.844 48.75V46.7812C309.844 41.9688 310.75 37.6562 312.562 33.8438C314.375 30.0312 316.984 27.0156 320.391 24.7969C323.797 22.5781 327.859 21.4688 332.578 21.4688C336.672 21.4688 340.25 22.1406 343.312 23.4844C346.406 24.8281 349 26.6719 351.094 29.0156L351.328 41.2031H344.109L342.516 32.3438C341.453 31.25 340.125 30.375 338.531 29.7188C336.938 29.0625 335.062 28.7344 332.906 28.7344C330.156 28.7344 327.734 29.5469 325.641 31.1719C323.578 32.7969 321.969 34.9688 320.812 37.6875C319.656 40.4062 319.078 43.4375 319.078 46.7812V48.75C319.078 54.3125 320.281 58.7344 322.688 62.0156C325.094 65.2656 328.375 66.8906 332.531 66.8906C335.656 66.8906 338.25 66.0312 340.312 64.3125C342.375 62.5938 343.641 60.2344 344.109 57.2344H352.406L352.5 57.5156C352.344 60.4219 351.484 63.1406 349.922 65.6719C348.359 68.2031 346.125 70.25 343.219 71.8125C340.344 73.3438 336.797 74.1094 332.578 74.1094Z" class="name-svg-fill" />
<path d="M358.312 92.625V86.6719L365.484 85.3594V29.6719L357.844 28.3594V22.4062H373.406L374.25 28.5938C377.719 23.8438 382.578 21.4688 388.828 21.4688C393.016 21.4688 396.594 22.6094 399.562 24.8906C402.531 27.1406 404.797 30.3125 406.359 34.4062C407.922 38.4688 408.703 43.2344 408.703 48.7031V49.6875C408.703 54.5625 407.906 58.8281 406.312 62.4844C404.75 66.1406 402.5 69 399.562 71.0625C396.625 73.0938 393.094 74.1094 388.969 74.1094C382.812 74.1094 378.062 72.0312 374.719 67.875V85.3594L382.781 86.6719V92.625H358.312ZM386.109 66.8906C390.484 66.8906 393.797 65.2969 396.047 62.1094C398.297 58.9219 399.422 54.7812 399.422 49.6875V48.7031C399.422 42.9219 398.297 38.1875 396.047 34.5C393.797 30.8125 390.453 28.9688 386.016 28.9688C383.391 28.9688 381.141 29.5625 379.266 30.75C377.391 31.9375 375.875 33.5625 374.719 35.625V60.3281C375.875 62.4219 377.375 64.0469 379.219 65.2031C381.094 66.3281 383.391 66.8906 386.109 66.8906Z" class="name-svg-fill" />
<path d="M415.547 73.125V67.2188L423.188 65.9062V29.6719L415.547 28.3594V22.4062H432.422V65.9062L440.062 67.2188V73.125H415.547ZM422.719 9.89062V0H432.422V9.89062H422.719Z" class="name-svg-fill" />
<path d="M469.359 74.1094C464.766 74.1094 460.766 73.0469 457.359 70.9219C453.953 68.7656 451.312 65.7812 449.438 61.9688C447.562 58.1562 446.625 53.75 446.625 48.75V46.7812C446.625 41.9688 447.531 37.6562 449.344 33.8438C451.156 30.0312 453.766 27.0156 457.172 24.7969C460.578 22.5781 464.641 21.4688 469.359 21.4688C473.453 21.4688 477.031 22.1406 480.094 23.4844C483.188 24.8281 485.781 26.6719 487.875 29.0156L488.109 41.2031H480.891L479.297 32.3438C478.234 31.25 476.906 30.375 475.312 29.7188C473.719 29.0625 471.844 28.7344 469.688 28.7344C466.938 28.7344 464.516 29.5469 462.422 31.1719C460.359 32.7969 458.75 34.9688 457.594 37.6875C456.438 40.4062 455.859 43.4375 455.859 46.7812V48.75C455.859 54.3125 457.062 58.7344 459.469 62.0156C461.875 65.2656 465.156 66.8906 469.312 66.8906C472.438 66.8906 475.031 66.0312 477.094 64.3125C479.156 62.5938 480.422 60.2344 480.891 57.2344H489.188L489.281 57.5156C489.125 60.4219 488.266 63.1406 486.703 65.6719C485.141 68.2031 482.906 70.25 480 71.8125C477.125 73.3438 473.578 74.1094 469.359 74.1094Z" class="name-svg-fill" />
<path d="M496.031 73.125V67.2188L503.672 65.9062V7.26562L496.031 5.95312V0H512.906V47.1094L530.859 29.25L531.094 28.9688L525.656 28.3594V22.4062H547.5V28.3594L540.984 29.5781L526.734 43.9219L544.219 66.0938L551.531 67.2188V73.125H528.609V67.2188L533.766 66.6094L533.625 66.4219L520.781 49.875L512.906 57.7969V65.9062L520.547 67.2188V73.125H496.031Z" class="name-svg-fill" />
<path d="M556.406 73.125V67.2188L564.047 65.9062V7.26562L556.406 5.95312V0H573.281V65.9062L580.922 67.2188V73.125H556.406Z" class="name-svg-fill" />
<path d="M609.703 74.1094C605.016 74.1094 600.938 73.0469 597.469 70.9219C594 68.7656 591.312 65.7812 589.406 61.9688C587.531 58.1562 586.594 53.75 586.594 48.75V46.6875C586.594 41.875 587.578 37.5781 589.547 33.7969C591.547 29.9844 594.188 26.9844 597.469 24.7969C600.781 22.5781 604.391 21.4688 608.297 21.4688C615.109 21.4688 620.266 23.5312 623.766 27.6562C627.297 31.7812 629.062 37.2812 629.062 44.1562V49.9219H596.156L596.016 50.1562C596.109 55.0312 597.344 59.0469 599.719 62.2031C602.094 65.3281 605.422 66.8906 609.703 66.8906C612.828 66.8906 615.562 66.4531 617.906 65.5781C620.281 64.6719 622.328 63.4375 624.047 61.875L627.656 67.875C625.844 69.625 623.438 71.1094 620.438 72.3281C617.469 73.5156 613.891 74.1094 609.703 74.1094ZM596.438 42.7031H619.828V41.4844C619.828 37.8594 618.859 34.8281 616.922 32.3906C614.984 29.9531 612.109 28.7344 608.297 28.7344C605.203 28.7344 602.562 30.0469 600.375 32.6719C598.188 35.2656 596.844 38.5312 596.344 42.4688L596.438 42.7031Z" class="name-svg-fill" />
</svg>
