<svg xmlns="http://www.w3.org/2000/svg" viewBox="0 0 197 46" width="197" height="46" role="img" aria-label="mcpickle" shape-rendering="crispEdges">
  <g transform="translate(8.00 8.00) scale(2.0000)">
    <clipPath id="appleClip">
    <rect x="7" y="0" width="2" height="2"/>
    <rect x="5" y="1" width="2" height="2"/>
    <path d="M2 4h4v1h2V4h4v8h-1v2H3v-2H2V4z"/>
    <rect x="0" y="6" width="2" height="4"/>
    <rect x="11" y="6" width="2" height="4"/></clipPath>
    <g clip-path="url(#appleClip)"><rect x="0" y="0.000" width="13" height="2.500" fill="#61bb46"/><rect x="0" y="2.500" width="13" height="2.500" fill="#fdb827"/><rect x="0" y="5.000" width="13" height="2.500" fill="#f5821f"/><rect x="0" y="7.500" width="13" height="2.500" fill="#e03a3e"/><rect x="0" y="10.000" width="13" height="2.500" fill="#963d97"/><rect x="0" y="12.500" width="13" height="2.500" fill="#009ddc"/></g>
  </g>
  <g fill="#1a1a1a"><rect x="48" y="15.5" width="3" height="3"/><rect x="51" y="15.5" width="3" height="3"/><rect x="54" y="15.5" width="3" height="3"/><rect x="57" y="15.5" width="3" height="3"/><rect x="60" y="15.5" width="3" height="3"/><rect x="48" y="18.5" width="3" height="3"/><rect x="54" y="18.5" width="3" height="3"/><rect x="60" y="18.5" width="3" height="3"/><rect x="48" y="21.5" width="3" height="3"/><rect x="54" y="21.5" width="3" height="3"/><rect x="60" y="21.5" width="3" height="3"/><rect x="48" y="24.5" width="3" height="3"/><rect x="54" y="24.5" width="3" height="3"/><rect x="60" y="24.5" width="3" height="3"/><rect x="48" y="27.5" width="3" height="3"/><rect x="54" y="27.5" width="3" height="3"/><rect x="60" y="27.5" width="3" height="3"/><rect x="69" y="15.5" width="3" height="3"/><rect x="72" y="15.5" width="3" height="3"/><rect x="75" y="15.5" width="3" height="3"/><rect x="78" y="15.5" width="3" height="3"/><rect x="66" y="18.5" width="3" height="3"/><rect x="66" y="21.5" width="3" height="3"/><rect x="66" y="24.5" width="3" height="3"/><rect x="69" y="27.5" width="3" height="3"/><rect x="72" y="27.5" width="3" height="3"/><rect x="75" y="27.5" width="3" height="3"/><rect x="78" y="27.5" width="3" height="3"/><rect x="84" y="15.5" width="3" height="3"/><rect x="87" y="15.5" width="3" height="3"/><rect x="90" y="15.5" width="3" height="3"/><rect x="93" y="15.5" width="3" height="3"/><rect x="84" y="18.5" width="3" height="3"/><rect x="96" y="18.5" width="3" height="3"/><rect x="84" y="21.5" width="3" height="3"/><rect x="96" y="21.5" width="3" height="3"/><rect x="84" y="24.5" width="3" height="3"/><rect x="87" y="24.5" width="3" height="3"/><rect x="90" y="24.5" width="3" height="3"/><rect x="93" y="24.5" width="3" height="3"/><rect x="84" y="27.5" width="3" height="3"/><rect x="84" y="30.5" width="3" height="3"/><rect x="84" y="33.5" width="3" height="3"/><rect x="108" y="9.5" width="3" height="3"/><rect x="108" y="15.5" width="3" height="3"/><rect x="108" y="18.5" width="3" height="3"/><rect x="108" y="21.5" width="3" height="3"/><rect x="108" y="24.5" width="3" height="3"/><rect x="108" y="27.5" width="3" height="3"/><rect x="123" y="15.5" width="3" height="3"/><rect x="126" y="15.5" width="3" height="3"/><rect x="129" y="15.5" width="3" height="3"/><rect x="132" y="15.5" width="3" height="3"/><rect x="120" y="18.5" width="3" height="3"/><rect x="120" y="21.5" width="3" height="3"/><rect x="120" y="24.5" width="3" height="3"/><rect x="123" y="27.5" width="3" height="3"/><rect x="126" y="27.5" width="3" height="3"/><rect x="129" y="27.5" width="3" height="3"/><rect x="132" y="27.5" width="3" height="3"/><rect x="138" y="9.5" width="3" height="3"/><rect x="138" y="12.5" width="3" height="3"/><rect x="138" y="15.5" width="3" height="3"/><rect x="147" y="15.5" width="3" height="3"/><rect x="138" y="18.5" width="3" height="3"/><rect x="144" y="18.5" width="3" height="3"/><rect x="138" y="21.5" width="3" height="3"/><rect x="141" y="21.5" width="3" height="3"/><rect x="138" y="24.5" width="3" height="3"/><rect x="144" y="24.5" width="3" height="3"/><rect x="138" y="27.5" width="3" height="3"/><rect x="147" y="27.5" width="3" height="3"/><rect x="162" y="9.5" width="3" height="3"/><rect x="162" y="12.5" width="3" height="3"/><rect x="162" y="15.5" width="3" height="3"/><rect x="162" y="18.5" width="3" height="3"/><rect x="162" y="21.5" width="3" height="3"/><rect x="162" y="24.5" width="3" height="3"/><rect x="162" y="27.5" width="3" height="3"/><rect x="165" y="27.5" width="3" height="3"/><rect x="177" y="15.5" width="3" height="3"/><rect x="180" y="15.5" width="3" height="3"/><rect x="183" y="15.5" width="3" height="3"/><rect x="174" y="18.5" width="3" height="3"/><rect x="186" y="18.5" width="3" height="3"/><rect x="174" y="21.5" width="3" height="3"/><rect x="177" y="21.5" width="3" height="3"/><rect x="180" y="21.5" width="3" height="3"/><rect x="183" y="21.5" width="3" height="3"/><rect x="186" y="21.5" width="3" height="3"/><rect x="174" y="24.5" width="3" height="3"/><rect x="177" y="27.5" width="3" height="3"/><rect x="180" y="27.5" width="3" height="3"/><rect x="183" y="27.5" width="3" height="3"/><rect x="186" y="27.5" width="3" height="3"/></g>
</svg>